<svg class="like-icon" width="39" height="36" viewBox="0 0 39 36"  xmlns="http://www.w3.org/2000/svg" aria-hidden="true">
              <g class="heart">
                <path class="contour" d="M12 6H9v3h3V6ZM15 6h-3v3h3V6ZM9 9H6v3h3V9ZM9 12H6v3h3v-3ZM9 15H6v3h3v-3ZM18 6h-3v3h3V6ZM12 18H9v3h3v-3ZM15 21h-3v3h3v-3ZM18 24h-3v3h3v-3ZM27 6h3v3h-3V6ZM24 6h3v3h-3V6ZM30 9h3v3h-3V9ZM30 12h3v3h-3v-3ZM30 15h3v3h-3v-3ZM21 6h3v3h-3V6ZM27 18h3v3h-3v-3ZM24 21h3v3h-3v-3ZM21 24h3v3h-3v-3ZM21 27h-3v3h3v-3ZM21 9h-3v3h3V9Z"></path>
                <path class="main-body"  d="M12 9H9v3h3V9ZM15 12h-3v3h3v-3ZM18 9h-3v3h3V9ZM12 15H9v3h3v-3ZM15 15h-3v3h3v-3ZM15 18h-3v3h3v-3ZM18 12h-3v3h3v-3ZM18 21h-3v3h3v-3ZM18 18h-3v3h3v-3ZM27 9h3v3h-3V9ZM24 9h3v3h-3V9ZM27 12h3v3h-3v-3ZM24 12h3v3h-3v-3ZM21 9h3v3h-3V9ZM27 15h3v3h-3v-3ZM24 15h3v3h-3v-3ZM24 18h3v3h-3v-3ZM21 12h3v3h-3v-3ZM21 21h3v3h-3v-3ZM21 18h3v3h-3v-3ZM21 21h-3v3h3v-3ZM21 24h-3v3h3v-3Z"></path>
                <path class="core" d="M18 15h-3v3h3v-3ZM21 15h3v3h-3v-3ZM21 15h-3v3h3v-3ZM21 12h-3v3h3v-3ZM21 18h-3v3h3v-3Z"></path>
              </g>
              <path class="sparks"  d="M36 13h3v3h-3v-3ZM27 27h3v3h-3v-3ZM18 33h3v3h-3v-3ZM9 27h3v3H9v-3ZM24 0h3v3h-3V0ZM33 3h3v3h-3V3ZM3 3h3v3H3V3ZM12 0h3v3h-3V0ZM0 13h3v3H0v-3Z"></path>
            </svg>